<svg id="visual" viewBox="0 0 1260 200" width="1260" height="200" xmlns="http://www.w3.org/2000/svg" xmlns:xlink="http://www.w3.org/1999/xlink" version="1.1"><rect x="0" y="0" width="1260" height="200" fill="#FAFBFC"></rect><path d="M0 114L35 112.2C70 110.3 140 106.7 210 100.8C280 95 350 87 420 90.2C490 93.3 560 107.7 630 114.5C700 121.3 770 120.7 840 115.3C910 110 980 100 1050 91.5C1120 83 1190 76 1225 72.5L1260 69L1260 201L1225 201C1190 201 1120 201 1050 201C980 201 910 201 840 201C770 201 700 201 630 201C560 201 490 201 420 201C350 201 280 201 210 201C140 201 70 201 35 201L0 201Z" fill="#CED0BB" stroke-linecap="round" stroke-linejoin="miter"></path></svg>